<svg xmlns="http://www.w3.org/2000/svg" viewBox="0 0 173.37 192"><g id="Layer_2" data-name="Layer 2"><g id="Layer_1-2" data-name="Layer 1"><path d="M167.37,131.49V59.77a17.94,17.94,0,0,0-9-15.51L95.65,8.4a17.94,17.94,0,0,0-17.93,0L15,44.26A17.93,17.93,0,0,0,6,59.77v71.72A17.93,17.93,0,0,0,15,147l62.75,35.86a17.9,17.9,0,0,0,17.93,0L158.41,147A17.94,17.94,0,0,0,167.37,131.49Z" style="fill:none;stroke:#a8009c;stroke-linecap:round;stroke-linejoin:round;stroke-width:12px"/><polyline points="46.34 25.79 86.69 49.1 127.03 25.79" style="fill:none;stroke:#a8009c;stroke-linecap:round;stroke-linejoin:round;stroke-width:12px"/><polyline points="46.34 165.47 46.34 118.94 6 95.63" style="fill:none;stroke:#a8009c;stroke-linecap:round;stroke-linejoin:round;stroke-width:12px"/><polyline points="167.37 95.63 127.03 118.94 127.03 165.47" style="fill:none;stroke:#a8009c;stroke-linecap:round;stroke-linejoin:round;stroke-width:12px"/><polyline points="8.42 50.45 86.69 95.72 164.95 50.45" style="fill:none;stroke:#a8009c;stroke-linecap:round;stroke-linejoin:round;stroke-width:12px"/><line x1="86.69" y1="186" x2="86.69" y2="95.63" style="fill:none;stroke:#a8009c;stroke-linecap:round;stroke-linejoin:round;stroke-width:12px"/></g></g></svg>